<?xml version="1.0" encoding="utf-8"?>
<!-- Generator: Adobe Illustrator 19.0.0, SVG Export Plug-In . SVG Version: 6.00 Build 0)  -->
<svg version="1.2" baseProfile="tiny" id="레이어_1"
	 xmlns="http://www.w3.org/2000/svg" xmlns:xlink="http://www.w3.org/1999/xlink" x="0px" y="0px" viewBox="0 0 1000 300"
	 xml:space="preserve">
<rect id="XMLID_160_" x="914.2" y="103.2" fill="#AD3AC1" stroke="#EAE9E8" stroke-miterlimit="10" width="36" height="42"/>
<rect id="XMLID_159_" x="888.2" y="35.2" fill="#CE5D36" stroke="#EAE9E8" stroke-miterlimit="10" width="35.6" height="42"/>
<rect id="XMLID_158_" x="852.2" y="35.2" fill="#CE5D36" stroke="#EAE9E8" stroke-miterlimit="10" width="36" height="42"/>
<rect id="XMLID_157_" x="816.2" y="35.2" fill="#CE5D36" stroke="#EAE9E8" stroke-miterlimit="10" width="36" height="42"/>
<rect id="XMLID_156_" x="780.2" y="35.2" fill="#CE5D36" stroke="#EAE9E8" stroke-miterlimit="10" width="36" height="42"/>
<rect id="XMLID_155_" x="744.2" y="35.2" fill="#52AD5F" stroke="#EAE9E8" stroke-miterlimit="10" width="36" height="42"/>
<rect id="XMLID_154_" x="708.2" y="35.2" fill="#CE5D36" stroke="#EAE9E8" stroke-miterlimit="10" width="36" height="42"/>
<rect id="XMLID_153_" x="672.2" y="35.2" fill="#52AD5F" stroke="#EAE9E8" stroke-miterlimit="10" width="36" height="42"/>
<rect id="XMLID_152_" x="636.2" y="35.2" fill="#CE5D36" stroke="#EAE9E8" stroke-miterlimit="10" width="36" height="42"/>
<rect id="XMLID_151_" x="600.2" y="35.2" fill="#CE5D36" stroke="#EAE9E8" stroke-miterlimit="10" width="36" height="42"/>
<rect id="XMLID_150_" x="528.2" y="35.2" fill="#AD3AC1" stroke="#EAE9E8" stroke-miterlimit="10" width="72" height="42"/>
<rect id="XMLID_149_" x="410.2" y="35.2" fill="#3659A0" stroke="#EAE9E8" stroke-miterlimit="10" width="36" height="42"/>
<rect id="XMLID_148_" x="374.2" y="35.2" fill="#D82E9B" stroke="#EAE9E8" stroke-miterlimit="10" width="36" height="42"/>
<rect id="XMLID_147_" x="338.2" y="35.2" fill="#CE5D36" stroke="#EAE9E8" stroke-miterlimit="10" width="36" height="42"/>
<rect id="XMLID_146_" x="302.2" y="35.2" fill="#CE5D36" stroke="#EAE9E8" stroke-miterlimit="10" width="36" height="42"/>
<rect id="XMLID_145_" x="266.2" y="35.2" fill="#CE5D36" stroke="#EAE9E8" stroke-miterlimit="10" width="36" height="42"/>
<rect id="XMLID_144_" x="158.2" y="35.2" fill="#5088AD" stroke="#EAE9E8" stroke-miterlimit="10" width="108" height="42"/>
<rect id="XMLID_143_" x="50.2" y="35.2" fill="#5088AD" stroke="#EAE9E8" stroke-miterlimit="10" width="108" height="42"/>
<rect id="XMLID_142_" x="816.2" y="103.2" fill="#AD3AC1" stroke="#EAE9E8" stroke-miterlimit="10" width="98" height="42"/>
<rect id="XMLID_140_" x="744.2" y="103.2" fill="#CE5D36" stroke="#EAE9E8" stroke-miterlimit="10" width="72" height="42"/>
<rect id="XMLID_139_" x="708.2" y="103.2" fill="#52AD5F" stroke="#EAE9E8" stroke-miterlimit="10" width="36" height="42"/>
<rect id="XMLID_138_" x="672.2" y="103.2" fill="#52AD5F" stroke="#EAE9E8" stroke-miterlimit="10" width="36" height="42"/>
<rect id="XMLID_137_" x="636.2" y="103.2" fill="#52AD5F" stroke="#EAE9E8" stroke-miterlimit="10" width="36" height="42"/>
<rect id="XMLID_136_" x="600.2" y="103.2" fill="#CE5D36" stroke="#EAE9E8" stroke-miterlimit="10" width="36" height="42"/>
<rect id="XMLID_135_" x="564.2" y="103.2" fill="#52AD5F" stroke="#EAE9E8" stroke-miterlimit="10" width="36" height="42"/>
<rect id="XMLID_134_" x="528.2" y="103.2" fill="#CE5D36" stroke="#EAE9E8" stroke-miterlimit="10" width="36" height="42"/>
<rect id="XMLID_133_" x="410.2" y="103.2" fill="#52AD5F" stroke="#EAE9E8" stroke-miterlimit="10" width="36.3" height="42"/>
<rect id="XMLID_132_" x="374.2" y="103.2" fill="#CE5D36" stroke="#EAE9E8" stroke-miterlimit="10" width="36" height="42"/>
<rect id="XMLID_131_" x="338.2" y="103.2" fill="#CE5D36" stroke="#EAE9E8" stroke-miterlimit="10" width="36" height="42"/>
<rect id="XMLID_130_" x="302.2" y="103.2" fill="#CE5D36" stroke="#EAE9E8" stroke-miterlimit="10" width="36" height="42"/>
<rect id="XMLID_129_" x="266.2" y="103.2" fill="#CE5D36" stroke="#EAE9E8" stroke-miterlimit="10" width="36" height="42"/>
<rect id="XMLID_128_" x="160.2" y="223.8" fill="#51A65D" stroke="#EAE9E8" stroke-miterlimit="10" width="55" height="41.5"/>
<rect id="XMLID_127_" x="215.2" y="223.8" fill="#51A65D" stroke="#EAE9E8" stroke-miterlimit="10" width="55" height="41.5"/>
<rect id="XMLID_126_" x="105.2" y="223.8" fill="#51A65D" stroke="#EAE9E8" stroke-miterlimit="10" width="55" height="41.5"/>
<rect id="XMLID_125_" x="50.2" y="223.8" fill="#51A65D" stroke="#EAE9E8" stroke-miterlimit="10" width="55" height="41.5"/>
<rect id="XMLID_124_" x="187.7" y="103.2" fill="#5088AD" stroke="#EAE9E8" stroke-miterlimit="10" width="82.5" height="93.5"/>
<rect id="XMLID_123_" x="50.2" y="103.2" fill="#5088AD" stroke="#EAE9E8" stroke-miterlimit="10" width="82.5" height="93.5"/>
<polygon id="XMLID_122_" fill="#757575" points="924.2,35.2 924.2,77.8 527.8,77.8 527.8,34.8 446.8,34.8 446.8,77.8 49.8,77.8 
	49.8,102.7 133.2,102.7 133.2,197.2 49.8,197.2 49.8,223.2 270.8,223.2 270.8,197.2 187.2,197.2 187.2,102.7 446.8,102.7 
	446.8,145.7 527.8,145.7 527.8,102.7 950.2,102.7 950.2,80.2 950.2,77.8 950.2,35.2 "/>
<g>
	<path fill="#D6D6D6" d="M919.3,129.5l2-2.2c1.6-1.7,3-3.2,3-4.6s-0.8-1.8-2.2-1.8c-0.7,0-1.7,0.4-2.3,0.7l-0.3-1.7
		c0.8-0.5,2-0.8,3.4-0.8c2.7,0,4,1.2,4,3.3c0,2.1-2,4.2-3.2,5.4l-1.2,1.2h4.4v1.8h-7.5v-1.3H919.3z"/>
	<path fill="#D6D6D6" d="M928.3,125.5v-0.6c0-4.2,2.3-5.8,4.7-5.8c2.5,0,4.6,1.6,4.6,5.7v0.6c0,4.2-2.2,5.7-4.7,5.7
		C930.4,131.1,928.3,129.5,928.3,125.5z M935.1,125.6v-0.7c0-2.7-0.7-3.9-2.2-3.9s-2.2,1.2-2.2,3.8v0.7c0,2.6,0.7,3.9,2.1,3.9
		S935.1,128.3,935.1,125.6z"/>
	<path fill="#D6D6D6" d="M940.8,121.7l-1.9,0.4v-1.4l3.1-1.4h1.2V131h-2.4L940.8,121.7L940.8,121.7z"/>
</g>
<g>
	<path fill="#D6D6D6" d="M850.5,129.5l2-2.2c1.6-1.7,3-3.2,3-4.6s-0.8-1.8-2.2-1.8c-0.7,0-1.7,0.4-2.3,0.7l-0.3-1.7
		c0.8-0.5,2-0.8,3.4-0.8c2.7,0,4,1.2,4,3.3c0,2.1-2,4.2-3.2,5.4l-1.2,1.2h4.4v1.8h-7.5v-1.3H850.5z"/>
	<path fill="#D6D6D6" d="M859.4,125.5v-0.6c0-4.2,2.3-5.8,4.7-5.8c2.5,0,4.6,1.6,4.6,5.7v0.6c0,4.2-2.2,5.7-4.7,5.7
		C861.5,131.1,859.4,129.5,859.4,125.5z M866.3,125.6v-0.7c0-2.7-0.7-3.9-2.2-3.9s-2.2,1.2-2.2,3.8v0.7c0,2.6,0.7,3.9,2.1,3.9
		S866.3,128.3,866.3,125.6z"/>
	<path fill="#D6D6D6" d="M870.3,129.5l2-2.2c1.6-1.7,3-3.2,3-4.6s-0.8-1.8-2.2-1.8c-0.7,0-1.7,0.4-2.3,0.7l-0.3-1.7
		c0.8-0.5,2-0.8,3.4-0.8c2.7,0,4,1.2,4,3.3c0,2.1-2,4.2-3.2,5.4l-1.2,1.2h4.4v1.8h-7.5v-1.3H870.3z"/>
</g>
<g>
	<path fill="#D6D6D6" d="M766.3,129.5l2-2.2c1.6-1.7,3-3.2,3-4.6s-0.8-1.8-2.2-1.8c-0.7,0-1.7,0.4-2.3,0.7l-0.3-1.7
		c0.8-0.5,2-0.8,3.4-0.8c2.7,0,4,1.2,4,3.3c0,2.1-2,4.2-3.2,5.4l-1.2,1.2h4.4v1.8h-7.5v-1.3H766.3z"/>
	<path fill="#D6D6D6" d="M775.2,125.5v-0.6c0-4.2,2.3-5.8,4.7-5.8c2.5,0,4.6,1.6,4.6,5.7v0.6c0,4.2-2.2,5.7-4.7,5.7
		C777.3,131.1,775.2,129.5,775.2,125.5z M782.1,125.6v-0.7c0-2.7-0.7-3.9-2.2-3.9s-2.2,1.2-2.2,3.8v0.7c0,2.6,0.7,3.9,2.1,3.9
		S782.1,128.3,782.1,125.6z"/>
	<path fill="#D6D6D6" d="M785.6,130.3l0.4-1.7c0.6,0.4,1.9,0.6,2.8,0.6c1.4,0,2.2-0.6,2.2-1.8s-0.8-1.6-2.2-1.6h-1.3v-1.7h1.1
		c1.3,0,2-0.6,2-1.6c0-1.1-0.7-1.5-1.9-1.5c-0.8,0-1.8,0.3-2.5,0.5l-0.3-1.7c0.7-0.4,2.2-0.7,3.4-0.7c2.2,0,3.6,1,3.6,2.9
		c0,1.4-0.8,2.3-2,2.7c1.5,0.3,2.4,1.1,2.4,2.8c0,2.2-1.6,3.5-4.3,3.5C787.8,131.1,786.3,130.7,785.6,130.3z"/>
</g>
<g>
	<path fill="#D6D6D6" d="M712.3,129.5l2-2.2c1.6-1.7,3-3.2,3-4.6s-0.8-1.8-2.2-1.8c-0.7,0-1.7,0.4-2.3,0.7l-0.3-1.7
		c0.8-0.5,2-0.8,3.4-0.8c2.7,0,4,1.2,4,3.3c0,2.1-2,4.2-3.2,5.4l-1.2,1.2h4.4v1.8h-7.5v-1.3H712.3z"/>
	<path fill="#D6D6D6" d="M721.2,125.5v-0.6c0-4.2,2.3-5.8,4.7-5.8c2.5,0,4.6,1.6,4.6,5.7v0.6c0,4.2-2.2,5.7-4.7,5.7
		C723.3,131.1,721.2,129.5,721.2,125.5z M728.1,125.6v-0.7c0-2.7-0.7-3.9-2.2-3.9s-2.2,1.2-2.2,3.8v0.7c0,2.6,0.7,3.9,2.1,3.9
		S728.1,128.3,728.1,125.6z"/>
	<path fill="#D6D6D6" d="M737.1,128.9h-5.2v-1.3l5.9-8.3h1.6v7.9h1.8v1.7h-1.8v2.3h-2.3V128.9z M737.1,127.1v-3.9l-2.8,3.9H737.1z"
		/>
</g>
<g>
	<path fill="#D6D6D6" d="M677,129.5l2-2.2c1.6-1.7,3-3.2,3-4.6s-0.8-1.8-2.2-1.8c-0.7,0-1.7,0.4-2.3,0.7l-0.3-1.7
		c0.8-0.5,2-0.8,3.4-0.8c2.7,0,4,1.2,4,3.3c0,2.1-2,4.2-3.2,5.4l-1.2,1.2h4.4v1.8H677V129.5z"/>
	<path fill="#D6D6D6" d="M685.9,125.5v-0.6c0-4.2,2.3-5.8,4.7-5.8c2.5,0,4.6,1.6,4.6,5.7v0.6c0,4.2-2.2,5.7-4.7,5.7
		C688,131.1,685.9,129.5,685.9,125.5z M692.8,125.6v-0.7c0-2.7-0.7-3.9-2.2-3.9s-2.2,1.2-2.2,3.8v0.7c0,2.6,0.7,3.9,2.1,3.9
		S692.8,128.3,692.8,125.6z"/>
	<path fill="#D6D6D6" d="M696.7,130.3l0.4-1.8c0.7,0.3,1.4,0.6,2.3,0.6c1.5,0,2.5-0.7,2.5-2c0-1.4-0.8-1.9-2.4-1.9
		c-0.7,0-1.8,0.4-2.3,0.6l0.4-6.6h6.2v1.8h-4.4l-0.2,2.6c0.3-0.1,0.9-0.2,1.4-0.2c2.4,0,3.8,1.2,3.8,3.7c0,2.2-1.6,3.9-4.3,3.9
		C698.8,131.1,697.5,130.8,696.7,130.3z"/>
</g>
<g>
	<path fill="#D6D6D6" d="M640.2,129.5l2-2.2c1.6-1.7,3-3.2,3-4.6s-0.8-1.8-2.2-1.8c-0.7,0-1.7,0.4-2.3,0.7l-0.3-1.7
		c0.8-0.5,2-0.8,3.4-0.8c2.7,0,4,1.2,4,3.3c0,2.1-2,4.2-3.2,5.4l-1.2,1.2h4.4v1.8h-7.5v-1.3H640.2z"/>
	<path fill="#D6D6D6" d="M649.2,125.5v-0.6c0-4.2,2.3-5.8,4.7-5.8c2.5,0,4.6,1.6,4.6,5.7v0.6c0,4.2-2.2,5.7-4.7,5.7
		C651.2,131.1,649.2,129.5,649.2,125.5z M656,125.6v-0.7c0-2.7-0.7-3.9-2.2-3.9s-2.2,1.2-2.2,3.8v0.7c0,2.6,0.7,3.9,2.1,3.9
		S656,128.3,656,125.6z"/>
	<path fill="#D6D6D6" d="M660.2,126v-0.8c0-4.5,2.4-6,5.2-6c1.2,0,2.2,0.4,2.7,0.6l-0.4,1.8c-0.5-0.2-1.4-0.5-2.2-0.5
		c-1.6,0-2.8,0.8-2.9,3.5c0.6-0.5,1.5-0.9,2.7-0.9c2,0,3.5,1.3,3.5,3.5c0,2.3-1.4,4-4.1,4C661.7,131.1,660.2,129.1,660.2,126z
		 M666.4,127.3c0-1.5-0.8-2-1.9-2c-0.7,0-1.5,0.5-1.9,1v0.1c0,1.9,0.6,3,2,3C665.7,129.4,666.4,128.6,666.4,127.3z"/>
</g>
<g>
	<path fill="#D6D6D6" d="M602.6,130l1.6-1.7c1.3-1.4,2.4-2.6,2.4-3.7s-0.6-1.5-1.8-1.5c-0.6,0-1.4,0.3-1.9,0.6l-0.2-1.4
		c0.7-0.4,1.6-0.7,2.7-0.7c2.1,0,3.2,1,3.2,2.7s-1.6,3.3-2.6,4.3l-1,1h3.5v1.5h-6L602.6,130L602.6,130z"/>
	<path fill="#D6D6D6" d="M609.7,126.7v-0.5c0-3.4,1.8-4.6,3.8-4.6s3.7,1.3,3.7,4.6v0.5c0,3.3-1.7,4.6-3.7,4.6
		C611.4,131.2,609.7,129.9,609.7,126.7z M615.2,126.8v-0.6c0-2.2-0.6-3.1-1.7-3.1c-1.2,0-1.7,0.9-1.7,3v0.6c0,2.1,0.5,3.1,1.7,3.1
		S615.2,128.9,615.2,126.8z"/>
	<path fill="#D6D6D6" d="M618.5,127.1v-0.6c0-3.6,1.9-4.8,4.2-4.8c0.9,0,1.8,0.3,2.2,0.5l-0.3,1.4c-0.4-0.2-1.2-0.4-1.8-0.4
		c-1.3,0-2.2,0.6-2.4,2.8c0.5-0.4,1.2-0.8,2.1-0.8c1.6,0,2.8,1,2.8,2.8s-1.1,3.2-3.3,3.2C619.7,131.2,618.5,129.6,618.5,127.1z
		 M623.5,128.1c0-1.2-0.7-1.6-1.5-1.6c-0.6,0-1.2,0.4-1.5,0.8v0.1c0,1.5,0.5,2.4,1.6,2.4C622.9,129.9,623.5,129.2,623.5,128.1z"/>
	<path fill="#D6D6D6" d="M626.6,126.6h3.9v1.4h-3.9V126.6z"/>
	<path fill="#D6D6D6" d="M632.2,123.7l-1.5,0.3v-1.1l2.5-1.1h1v9.4h-1.9L632.2,123.7L632.2,123.7z"/>
</g>
<g>
	<path fill="#D6D6D6" d="M568.6,129.5l2-2.2c1.6-1.7,3-3.2,3-4.6s-0.8-1.8-2.2-1.8c-0.7,0-1.7,0.4-2.3,0.7l-0.3-1.7
		c0.8-0.5,2-0.8,3.4-0.8c2.7,0,4,1.2,4,3.3c0,2.1-2,4.2-3.2,5.4l-1.2,1.2h4.4v1.8h-7.5v-1.3H568.6z"/>
	<path fill="#D6D6D6" d="M577.6,125.5v-0.6c0-4.2,2.3-5.8,4.7-5.8c2.5,0,4.6,1.6,4.6,5.7v0.6c0,4.2-2.2,5.7-4.7,5.7
		C579.6,131.1,577.6,129.5,577.6,125.5z M584.4,125.6v-0.7c0-2.7-0.7-3.9-2.2-3.9s-2.2,1.2-2.2,3.8v0.7c0,2.6,0.7,3.9,2.1,3.9
		S584.4,128.3,584.4,125.6z"/>
	<path fill="#D6D6D6" d="M593.1,121.2h-5v-1.8h7.7v1.4l-4.1,10.2H589L593.1,121.2z"/>
</g>
<g>
	<path fill="#D6D6D6" d="M532.3,129.5l2-2.2c1.6-1.7,3-3.2,3-4.6s-0.8-1.8-2.2-1.8c-0.7,0-1.7,0.4-2.3,0.7l-0.3-1.7
		c0.8-0.5,2-0.8,3.4-0.8c2.7,0,4,1.2,4,3.3c0,2.1-2,4.2-3.2,5.4l-1.2,1.2h4.4v1.8h-7.5v-1.3H532.3z"/>
	<path fill="#D6D6D6" d="M541.3,125.5v-0.6c0-4.2,2.3-5.8,4.7-5.8c2.5,0,4.6,1.6,4.6,5.7v0.6c0,4.2-2.2,5.7-4.7,5.7
		C543.3,131.1,541.3,129.5,541.3,125.5z M548.1,125.6v-0.7c0-2.7-0.7-3.9-2.2-3.9s-2.2,1.2-2.2,3.8v0.7c0,2.6,0.7,3.9,2.1,3.9
		S548.1,128.3,548.1,125.6z"/>
	<path fill="#D6D6D6" d="M552.2,128c0-1.4,1-2.5,2.3-3c-1.2-0.6-2-1.3-2-2.8c0-1.9,1.6-3.1,4.1-3.1s4.1,1.1,4.1,2.9
		c0,1.2-0.8,2.2-2,2.7c1.3,0.5,2.5,1.3,2.5,2.9c0,2-1.7,3.4-4.5,3.4C553.7,131.1,552.2,129.9,552.2,128z M558.8,127.8
		c0-1.1-0.9-1.7-2.5-2.1c-1,0.3-1.9,1.1-1.9,2c0,1.1,0.8,1.7,2.2,1.7C557.9,129.5,558.8,128.8,558.8,127.8z M558.5,122.2
		c0-0.8-0.6-1.4-1.8-1.4c-1.1,0-1.8,0.5-1.8,1.4s0.6,1.5,2.1,1.8C557.7,123.7,558.5,123.1,558.5,122.2z"/>
</g>
<g>
	<path fill="#D6D6D6" d="M414.5,129.5l2-2.2c1.6-1.7,3-3.2,3-4.6s-0.8-1.8-2.2-1.8c-0.7,0-1.7,0.4-2.3,0.7l-0.3-1.7
		c0.8-0.5,2-0.8,3.4-0.8c2.7,0,4,1.2,4,3.3c0,2.1-2,4.2-3.2,5.4l-1.2,1.2h4.4v1.8h-7.5L414.5,129.5L414.5,129.5z"/>
	<path fill="#D6D6D6" d="M423.5,125.5v-0.6c0-4.2,2.3-5.8,4.7-5.8c2.5,0,4.6,1.6,4.6,5.7v0.6c0,4.2-2.2,5.7-4.7,5.7
		C425.5,131.1,423.5,129.5,423.5,125.5z M430.3,125.6v-0.7c0-2.7-0.7-3.9-2.2-3.9s-2.2,1.2-2.2,3.8v0.7c0,2.6,0.7,3.9,2.1,3.9
		S430.3,128.3,430.3,125.6z"/>
	<path fill="#D6D6D6" d="M442.7,124.3v0.8c0,4.7-2.3,6-5.1,6c-1.2,0-2.3-0.4-2.8-0.7l0.3-1.7c0.5,0.3,1.6,0.6,2.4,0.6
		c1.6,0,2.8-0.5,2.9-3.3c-0.6,0.5-1.5,0.9-2.7,0.9c-2,0-3.5-1.4-3.5-3.6c0-2.4,1.3-4.1,4-4.1C441.1,119.1,442.7,121,442.7,124.3z
		 M436.5,123c0,1.5,0.8,2.1,1.9,2.1c0.7,0,1.6-0.5,1.9-1v-0.3c0-1.8-0.6-3-2.1-3C437.1,120.9,436.5,121.7,436.5,123z"/>
</g>
<g>
	<path fill="#D6D6D6" d="M380.5,129.5l2-2.2c1.6-1.7,3-3.2,3-4.6s-0.8-1.8-2.2-1.8c-0.7,0-1.7,0.4-2.3,0.7l-0.3-1.7
		c0.8-0.5,2-0.8,3.4-0.8c2.7,0,4,1.2,4,3.3c0,2.1-2,4.2-3.2,5.4l-1.2,1.2h4.4v1.8h-7.5L380.5,129.5L380.5,129.5z"/>
	<path fill="#D6D6D6" d="M391.1,121.7l-1.9,0.4v-1.4l3.1-1.4h1.2V131h-2.4L391.1,121.7L391.1,121.7z"/>
	<path fill="#D6D6D6" d="M395.9,125.5v-0.6c0-4.2,2.3-5.8,4.7-5.8c2.5,0,4.6,1.6,4.6,5.7v0.6c0,4.2-2.2,5.7-4.7,5.7
		C397.9,131.1,395.9,129.5,395.9,125.5z M402.7,125.6v-0.7c0-2.7-0.7-3.9-2.2-3.9s-2.2,1.2-2.2,3.8v0.7c0,2.6,0.7,3.9,2.1,3.9
		S402.7,128.3,402.7,125.6z"/>
</g>
<g>
	<path fill="#D6D6D6" d="M347,129.5l2-2.2c1.6-1.7,3-3.2,3-4.6s-0.8-1.8-2.2-1.8c-0.7,0-1.7,0.4-2.3,0.7l-0.3-1.7
		c0.8-0.5,2-0.8,3.4-0.8c2.7,0,4,1.2,4,3.3c0,2.1-2,4.2-3.2,5.4l-1.2,1.2h4.4v1.8H347V129.5z"/>
	<path fill="#D6D6D6" d="M357.6,121.7l-1.9,0.4v-1.4l3.1-1.4h1.2V131h-2.4L357.6,121.7L357.6,121.7z"/>
	<path fill="#D6D6D6" d="M363.9,121.7L362,122v-1.4l3.1-1.4h1.2V131h-2.4L363.9,121.7L363.9,121.7z"/>
</g>
<g>
	<path fill="#D6D6D6" d="M309,129.5l2-2.2c1.6-1.7,3-3.2,3-4.6s-0.8-1.8-2.2-1.8c-0.7,0-1.7,0.4-2.3,0.7l-0.3-1.7
		c0.8-0.5,2-0.8,3.4-0.8c2.7,0,4,1.2,4,3.3c0,2.1-2,4.2-3.2,5.4l-1.2,1.2h4.4v1.8H309V129.5z"/>
	<path fill="#D6D6D6" d="M319.6,121.7l-1.9,0.4v-1.4l3.1-1.4h1.2V131h-2.4L319.6,121.7L319.6,121.7z"/>
	<path fill="#D6D6D6" d="M324.4,129.5l2-2.2c1.6-1.7,3-3.2,3-4.6s-0.8-1.8-2.2-1.8c-0.7,0-1.7,0.4-2.3,0.7l-0.3-1.7
		c0.8-0.5,2-0.8,3.4-0.8c2.7,0,4,1.2,4,3.3c0,2.1-2,4.2-3.2,5.4l-1.2,1.2h4.4v1.8h-7.5L324.4,129.5L324.4,129.5z"/>
</g>
<g>
	<path fill="#D6D6D6" d="M275.1,129.5l2-2.2c1.6-1.7,3-3.2,3-4.6s-0.8-1.8-2.2-1.8c-0.7,0-1.7,0.4-2.3,0.7l-0.3-1.7
		c0.8-0.5,2-0.8,3.4-0.8c2.7,0,4,1.2,4,3.3c0,2.1-2,4.2-3.2,5.4l-1.2,1.2h4.4v1.8h-7.5L275.1,129.5L275.1,129.5z"/>
	<path fill="#D6D6D6" d="M285.7,121.7l-1.9,0.4v-1.4l3.1-1.4h1.2V131h-2.4L285.7,121.7L285.7,121.7z"/>
	<path fill="#D6D6D6" d="M290.1,130.3l0.4-1.7c0.6,0.4,1.9,0.6,2.8,0.6c1.4,0,2.2-0.6,2.2-1.8s-0.8-1.6-2.2-1.6H292v-1.7h1.1
		c1.3,0,2-0.6,2-1.6c0-1.1-0.7-1.5-1.9-1.5c-0.8,0-1.8,0.3-2.5,0.5l-0.3-1.7c0.7-0.4,2.2-0.7,3.4-0.7c2.2,0,3.6,1,3.6,2.9
		c0,1.4-0.8,2.3-2,2.7c1.5,0.3,2.4,1.1,2.4,2.8c0,2.2-1.6,3.5-4.3,3.5C292.3,131.1,290.8,130.7,290.1,130.3z"/>
</g>
<g>
	<path fill="#D6D6D6" d="M218.2,154.5l2-2.2c1.6-1.7,3-3.2,3-4.6s-0.8-1.8-2.2-1.8c-0.7,0-1.7,0.4-2.3,0.7l-0.3-1.7
		c0.8-0.5,2-0.8,3.4-0.8c2.7,0,4,1.2,4,3.3s-2,4.2-3.2,5.4l-1.2,1.2h4.4v1.8h-7.5L218.2,154.5L218.2,154.5z"/>
	<path fill="#D6D6D6" d="M228.8,146.6l-1.9,0.4v-1.4l3.1-1.4h1.2v11.7h-2.4L228.8,146.6L228.8,146.6z"/>
	<path fill="#D6D6D6" d="M238.3,153.8h-5.2v-1.3l5.9-8.3h1.6v7.9h1.8v1.7h-1.8v2.3h-2.3V153.8z M238.4,152.1v-3.9l-2.8,3.9H238.4z"
		/>
</g>
<g>
	<path fill="#D6D6D6" d="M78.5,154.5l2-2.2c1.6-1.7,3-3.2,3-4.6s-0.8-1.8-2.2-1.8c-0.7,0-1.7,0.4-2.3,0.7l-0.3-1.7
		c0.8-0.5,2-0.8,3.4-0.8c2.7,0,4,1.2,4,3.3s-2,4.2-3.2,5.4l-1.2,1.2H86v1.8h-7.5V154.5z"/>
	<path fill="#D6D6D6" d="M89.2,146.6l-1.9,0.4v-1.4l3.1-1.4h1.2v11.7h-2.4C89.2,155.9,89.2,146.6,89.2,146.6z"/>
	<path fill="#D6D6D6" d="M102.2,149.2v0.8c0,4.7-2.3,6-5.1,6c-1.2,0-2.3-0.4-2.8-0.7l0.3-1.7c0.5,0.3,1.6,0.6,2.4,0.6
		c1.6,0,2.8-0.5,2.9-3.3c-0.6,0.5-1.5,0.9-2.7,0.9c-2,0-3.5-1.4-3.5-3.6c0-2.4,1.3-4.1,4-4.1C100.6,144.1,102.2,145.9,102.2,149.2z
		 M96,148c0,1.5,0.8,2.1,1.9,2.1c0.7,0,1.6-0.5,1.9-1v-0.3c0-1.8-0.6-3-2.1-3C96.6,145.8,96,146.6,96,148z"/>
</g>
<g>
	<path fill="#D6D6D6" d="M233,249.4l2-2.2c1.6-1.7,3-3.2,3-4.6s-0.8-1.8-2.2-1.8c-0.7,0-1.7,0.4-2.3,0.7l-0.3-1.7
		c0.8-0.5,2-0.8,3.4-0.8c2.7,0,4,1.2,4,3.3s-2,4.2-3.2,5.4l-1.2,1.2h4.4v1.8H233V249.4z"/>
	<path fill="#D6D6D6" d="M243.6,241.5l-1.9,0.4v-1.4l3.1-1.4h1.2v11.7h-2.4L243.6,241.5L243.6,241.5z"/>
	<path fill="#D6D6D6" d="M248.1,250.2l0.4-1.8c0.7,0.3,1.4,0.6,2.3,0.6c1.5,0,2.5-0.7,2.5-2c0-1.4-0.8-1.9-2.4-1.9
		c-0.7,0-1.8,0.4-2.3,0.6l0.4-6.6h6.2v1.8h-4.4l-0.2,2.6c0.3-0.1,0.9-0.2,1.4-0.2c2.4,0,3.8,1.2,3.8,3.7c0,2.2-1.6,3.9-4.3,3.9
		C250.1,250.9,248.9,250.6,248.1,250.2z"/>
</g>
<g>
	<path fill="#D6D6D6" d="M176.1,249.4l2-2.2c1.6-1.7,3-3.2,3-4.6s-0.8-1.8-2.2-1.8c-0.7,0-1.7,0.4-2.3,0.7l-0.3-1.7
		c0.8-0.5,2-0.8,3.4-0.8c2.7,0,4,1.2,4,3.3s-2,4.2-3.2,5.4l-1.2,1.2h4.4v1.8h-7.5L176.1,249.4L176.1,249.4z"/>
	<path fill="#D6D6D6" d="M186.7,241.5l-1.9,0.4v-1.4l3.1-1.4h1.2v11.7h-2.4L186.7,241.5L186.7,241.5z"/>
	<path fill="#D6D6D6" d="M191.4,245.8V245c0-4.5,2.4-6,5.2-6c1.2,0,2.2,0.4,2.7,0.6l-0.4,1.8c-0.5-0.2-1.4-0.5-2.2-0.5
		c-1.6,0-2.8,0.8-2.9,3.5c0.6-0.5,1.5-0.9,2.7-0.9c2,0,3.5,1.3,3.5,3.5c0,2.3-1.4,4-4.1,4C192.9,251,191.4,249,191.4,245.8z
		 M197.7,247.1c0-1.5-0.8-2-1.9-2c-0.7,0-1.5,0.5-1.9,1v0.1c0,1.9,0.6,3,2,3C196.9,249.2,197.7,248.5,197.7,247.1z"/>
</g>
<g>
	<path fill="#D6D6D6" d="M121.7,249.4l2-2.2c1.6-1.7,3-3.2,3-4.6s-0.8-1.8-2.2-1.8c-0.7,0-1.7,0.4-2.3,0.7l-0.3-1.7
		c0.8-0.5,2-0.8,3.4-0.8c2.7,0,4,1.2,4,3.3s-2,4.2-3.2,5.4l-1.2,1.2h4.4v1.8h-7.5L121.7,249.4L121.7,249.4z"/>
	<path fill="#D6D6D6" d="M132.4,241.5l-1.9,0.4v-1.4l3.1-1.4h1.2v11.7h-2.4L132.4,241.5L132.4,241.5z"/>
	<path fill="#D6D6D6" d="M142,241h-5v-1.8h7.7v1.4l-4.1,10.2H138L142,241z"/>
</g>
<g>
	<path fill="#D6D6D6" d="M66,249.4l2-2.2c1.6-1.7,3-3.2,3-4.6s-0.8-1.8-2.2-1.8c-0.7,0-1.7,0.4-2.3,0.7l-0.3-1.7
		c0.8-0.5,2-0.8,3.4-0.8c2.7,0,4,1.2,4,3.3s-2,4.2-3.2,5.4l-1.2,1.2h4.4v1.8H66V249.4z"/>
	<path fill="#D6D6D6" d="M76.7,241.5l-1.9,0.4v-1.4l3.1-1.4h1.2v11.7h-2.4C76.7,250.8,76.7,241.5,76.7,241.5z"/>
	<path fill="#D6D6D6" d="M81.2,247.8c0-1.4,1-2.5,2.3-3c-1.2-0.6-2-1.3-2-2.8c0-1.9,1.6-3.1,4.1-3.1s4.1,1.1,4.1,2.9
		c0,1.2-0.8,2.2-2,2.7c1.3,0.5,2.5,1.3,2.5,2.9c0,2-1.7,3.4-4.5,3.4C82.8,251,81.2,249.7,81.2,247.8z M87.8,247.7
		c0-1.1-0.9-1.7-2.5-2.1c-1,0.3-1.9,1.1-1.9,2c0,1,0.8,1.7,2.2,1.7C87,249.3,87.8,248.6,87.8,247.7z M87.6,242.1
		c0-0.8-0.6-1.4-1.8-1.4c-1.1,0-1.8,0.5-1.8,1.4s0.6,1.5,2.1,1.8C86.8,243.5,87.6,242.9,87.6,242.1z"/>
</g>
<g>
	<path fill="#D6D6D6" d="M88.9,60.3l2-2.2c1.6-1.7,3-3.2,3-4.6c0-1.4-0.8-1.8-2.2-1.8c-0.7,0-1.7,0.4-2.3,0.7L89,50.8
		c0.8-0.5,2-0.8,3.4-0.8c2.7,0,4,1.2,4,3.3s-2,4.2-3.2,5.4L92,59.9h4.4v1.8h-7.5C88.9,61.7,88.9,60.3,88.9,60.3z"/>
	<path fill="#D6D6D6" d="M97.9,60.3l2-2.2c1.6-1.7,3-3.2,3-4.6c0-1.4-0.8-1.8-2.2-1.8c-0.7,0-1.7,0.4-2.3,0.7l-0.3-1.7
		c0.8-0.5,2-0.8,3.4-0.8c2.7,0,4,1.2,4,3.3s-2,4.2-3.2,5.4l-1.2,1.2h4.4v1.8H98v-1.3H97.9z"/>
	<path fill="#D6D6D6" d="M106.9,56.3v-0.6c0-4.2,2.3-5.8,4.7-5.8c2.5,0,4.6,1.6,4.6,5.7v0.6c0,4.2-2.2,5.7-4.7,5.7
		C108.9,61.9,106.9,60.3,106.9,56.3z M113.7,56.4v-0.7c0-2.7-0.7-3.9-2.2-3.9s-2.2,1.2-2.2,3.8v0.7c0,2.6,0.7,3.9,2.1,3.9
		S113.7,59.1,113.7,56.4z"/>
</g>
<g>
	<path fill="#D6D6D6" d="M200.2,60.3l2-2.2c1.6-1.7,3-3.2,3-4.6c0-1.4-0.8-1.8-2.2-1.8c-0.7,0-1.7,0.4-2.3,0.7l-0.3-1.7
		c0.8-0.5,2-0.8,3.4-0.8c2.7,0,4,1.2,4,3.3s-2,4.2-3.2,5.4l-1.2,1.2h4.4v1.8h-7.5L200.2,60.3L200.2,60.3z"/>
	<path fill="#D6D6D6" d="M209.2,60.3l2-2.2c1.6-1.7,3-3.2,3-4.6c0-1.4-0.8-1.8-2.2-1.8c-0.7,0-1.7,0.4-2.3,0.7l-0.3-1.7
		c0.8-0.5,2-0.8,3.4-0.8c2.7,0,4,1.2,4,3.3s-2,4.2-3.2,5.4l-1.2,1.2h4.4v1.8h-7.5L209.2,60.3L209.2,60.3z"/>
	<path fill="#D6D6D6" d="M219.9,52.5l-1.9,0.4v-1.4l3.1-1.4h1.2v11.7h-2.4L219.9,52.5L219.9,52.5z"/>
</g>
<g>
	<path fill="#D6D6D6" d="M272.4,60.3l2-2.2c1.6-1.7,3-3.2,3-4.6c0-1.4-0.8-1.8-2.2-1.8c-0.7,0-1.7,0.4-2.3,0.7l-0.3-1.7
		c0.8-0.5,2-0.8,3.4-0.8c2.7,0,4,1.2,4,3.3s-2,4.2-3.2,5.4l-1.2,1.2h4.4v1.8h-7.5L272.4,60.3L272.4,60.3z"/>
	<path fill="#D6D6D6" d="M281.5,60.3l2-2.2c1.6-1.7,3-3.2,3-4.6c0-1.4-0.8-1.8-2.2-1.8c-0.7,0-1.7,0.4-2.3,0.7l-0.3-1.7
		c0.8-0.5,2-0.8,3.4-0.8c2.7,0,4,1.2,4,3.3s-2,4.2-3.2,5.4l-1.2,1.2h4.4v1.8h-7.5L281.5,60.3L281.5,60.3z"/>
	<path fill="#D6D6D6" d="M290.6,60.3l2-2.2c1.6-1.7,3-3.2,3-4.6c0-1.4-0.8-1.8-2.2-1.8c-0.7,0-1.7,0.4-2.3,0.7l-0.3-1.7
		c0.8-0.5,2-0.8,3.4-0.8c2.7,0,4,1.2,4,3.3s-2,4.2-3.2,5.4l-1.2,1.2h4.4v1.8h-7.5L290.6,60.3L290.6,60.3z"/>
</g>
<g>
	<path fill="#D6D6D6" d="M308.2,60.3l2-2.2c1.6-1.7,3-3.2,3-4.6c0-1.4-0.8-1.8-2.2-1.8c-0.7,0-1.7,0.4-2.3,0.7l-0.3-1.7
		c0.8-0.5,2-0.8,3.4-0.8c2.7,0,4,1.2,4,3.3s-2,4.2-3.2,5.4l-1.2,1.2h4.4v1.8h-7.5L308.2,60.3L308.2,60.3z"/>
	<path fill="#D6D6D6" d="M317.2,60.3l2-2.2c1.6-1.7,3-3.2,3-4.6c0-1.4-0.8-1.8-2.2-1.8c-0.7,0-1.7,0.4-2.3,0.7l-0.3-1.7
		c0.8-0.5,2-0.8,3.4-0.8c2.7,0,4,1.2,4,3.3s-2,4.2-3.2,5.4l-1.2,1.2h4.4v1.8h-7.5L317.2,60.3L317.2,60.3z"/>
	<path fill="#D6D6D6" d="M325.9,61.1l0.4-1.7c0.6,0.4,1.9,0.6,2.8,0.6c1.4,0,2.2-0.6,2.2-1.8s-0.8-1.6-2.2-1.6h-1.3v-1.7h1.1
		c1.3,0,2-0.6,2-1.6c0-1.1-0.7-1.5-1.9-1.5c-0.8,0-1.8,0.3-2.5,0.5l-0.3-1.7c0.7-0.4,2.2-0.7,3.4-0.7c2.2,0,3.6,1,3.6,2.9
		c0,1.4-0.8,2.3-2,2.7c1.5,0.3,2.4,1.1,2.4,2.8c0,2.2-1.6,3.5-4.3,3.5C328.1,61.9,326.6,61.5,325.9,61.1z"/>
</g>
<g>
	<path fill="#D6D6D6" d="M343.8,60.3l2-2.2c1.6-1.7,3-3.2,3-4.6c0-1.4-0.8-1.8-2.2-1.8c-0.7,0-1.7,0.4-2.3,0.7l-0.3-1.7
		c0.8-0.5,2-0.8,3.4-0.8c2.7,0,4,1.2,4,3.3s-2,4.2-3.2,5.4l-1.2,1.2h4.4v1.8h-7.5L343.8,60.3L343.8,60.3z"/>
	<path fill="#D6D6D6" d="M352.9,60.3l2-2.2c1.6-1.7,3-3.2,3-4.6c0-1.4-0.8-1.8-2.2-1.8c-0.7,0-1.7,0.4-2.3,0.7l-0.3-1.7
		c0.8-0.5,2-0.8,3.4-0.8c2.7,0,4,1.2,4,3.3s-2,4.2-3.2,5.4l-1.2,1.2h4.4v1.8H353L352.9,60.3L352.9,60.3z"/>
	<path fill="#D6D6D6" d="M366.5,59.7h-5.2v-1.3l5.9-8.3h1.6V58h1.8v1.7h-1.8V62h-2.3V59.7z M366.6,57.9V54l-2.8,3.9H366.6z"/>
</g>
<g>
	<path fill="#D6D6D6" d="M550.3,60.3l2-2.2c1.6-1.7,3-3.2,3-4.6s-0.8-1.8-2.2-1.8c-0.7,0-1.7,0.4-2.3,0.7l-0.3-1.7
		c0.8-0.5,2-0.8,3.4-0.8c2.7,0,4,1.2,4,3.3s-2,4.2-3.2,5.4l-1.2,1.2h4.4v1.8h-7.5v-1.3H550.3z"/>
	<path fill="#D6D6D6" d="M559.4,60.3l2-2.2c1.6-1.7,3-3.2,3-4.6s-0.8-1.8-2.2-1.8c-0.7,0-1.7,0.4-2.3,0.7l-0.3-1.7
		c0.8-0.5,2-0.8,3.4-0.8c2.7,0,4,1.2,4,3.3s-2,4.2-3.2,5.4l-1.2,1.2h4.4v1.8h-7.5v-1.3H559.4z"/>
	<path fill="#D6D6D6" d="M568.3,58.8c0-1.4,1-2.5,2.3-3c-1.2-0.6-2-1.3-2-2.8c0-1.9,1.6-3.1,4.1-3.1s4.1,1.1,4.1,2.9
		c0,1.2-0.8,2.2-2,2.7c1.3,0.5,2.5,1.3,2.5,2.9c0,2-1.7,3.4-4.5,3.4C569.8,61.9,568.3,60.7,568.3,58.8z M574.9,58.6
		c0-1.1-0.9-1.7-2.5-2.1c-1,0.3-1.9,1.1-1.9,2c0,1.1,0.8,1.7,2.2,1.7C574.1,60.3,574.9,59.6,574.9,58.6z M574.6,53
		c0-0.8-0.6-1.4-1.8-1.4c-1.1,0-1.8,0.5-1.8,1.4s0.6,1.5,2.1,1.8C573.9,54.5,574.6,53.9,574.6,53z"/>
</g>
<g>
	<path fill="#D6D6D6" d="M604.3,60.3l2-2.2c1.6-1.7,3-3.2,3-4.6s-0.8-1.8-2.2-1.8c-0.7,0-1.7,0.4-2.3,0.7l-0.3-1.7
		c0.8-0.5,2-0.8,3.4-0.8c2.7,0,4,1.2,4,3.3s-2,4.2-3.2,5.4l-1.2,1.2h4.4v1.8h-7.5v-1.3H604.3z"/>
	<path fill="#D6D6D6" d="M613.4,60.3l2-2.2c1.6-1.7,3-3.2,3-4.6s-0.8-1.8-2.2-1.8c-0.7,0-1.7,0.4-2.3,0.7l-0.3-1.7
		c0.8-0.5,2-0.8,3.4-0.8c2.7,0,4,1.2,4,3.3s-2,4.2-3.2,5.4l-1.2,1.2h4.4v1.8h-7.5v-1.3H613.4z"/>
	<path fill="#D6D6D6" d="M630.8,55.1v0.8c0,4.7-2.3,6-5.1,6c-1.2,0-2.3-0.4-2.8-0.7l0.3-1.7c0.5,0.3,1.6,0.6,2.4,0.6
		c1.6,0,2.8-0.5,2.9-3.3c-0.6,0.5-1.5,0.9-2.7,0.9c-2,0-3.5-1.4-3.5-3.6c0-2.4,1.3-4.1,4-4.1C629.2,49.9,630.8,51.8,630.8,55.1z
		 M624.5,53.8c0,1.5,0.8,2.1,1.9,2.1c0.7,0,1.6-0.5,1.9-1v-0.3c0-1.8-0.6-3-2.1-3C625.2,51.6,624.5,52.5,624.5,53.8z"/>
</g>
<g>
	<path fill="#D6D6D6" d="M640.2,60.3l2-2.2c1.6-1.7,3-3.2,3-4.6s-0.8-1.8-2.2-1.8c-0.7,0-1.7,0.4-2.3,0.7l-0.3-1.7
		c0.8-0.5,2-0.8,3.4-0.8c2.7,0,4,1.2,4,3.3s-2,4.2-3.2,5.4l-1.2,1.2h4.4v1.8h-7.5v-1.3H640.2z"/>
	<path fill="#D6D6D6" d="M648.9,61.1l0.4-1.7c0.6,0.4,1.9,0.6,2.8,0.6c1.4,0,2.2-0.6,2.2-1.8s-0.8-1.6-2.2-1.6h-1.3v-1.7h1.1
		c1.3,0,2-0.6,2-1.6c0-1.1-0.7-1.5-1.9-1.5c-0.8,0-1.8,0.3-2.5,0.5l-0.3-1.7c0.7-0.4,2.2-0.7,3.4-0.7c2.2,0,3.6,1,3.6,2.9
		c0,1.4-0.8,2.3-2,2.7c1.5,0.3,2.4,1.1,2.4,2.8c0,2.2-1.6,3.5-4.3,3.5C651.1,61.9,649.6,61.5,648.9,61.1z"/>
	<path fill="#D6D6D6" d="M658.4,56.3v-0.6c0-4.2,2.3-5.8,4.7-5.8c2.5,0,4.6,1.6,4.6,5.7v0.6c0,4.2-2.2,5.7-4.7,5.7
		C660.4,61.9,658.4,60.3,658.4,56.3z M665.2,56.4v-0.7c0-2.7-0.7-3.9-2.2-3.9s-2.2,1.2-2.2,3.8v0.7c0,2.6,0.7,3.9,2.1,3.9
		S665.2,59.1,665.2,56.4z"/>
</g>
<g>
	<path fill="#D6D6D6" d="M677,60.3l2-2.2c1.6-1.7,3-3.2,3-4.6s-0.8-1.8-2.2-1.8c-0.7,0-1.7,0.4-2.3,0.7l-0.3-1.7
		c0.8-0.5,2-0.8,3.4-0.8c2.7,0,4,1.2,4,3.3s-2,4.2-3.2,5.4l-1.2,1.2h4.4v1.8H677V60.3z"/>
	<path fill="#D6D6D6" d="M685.7,61.1l0.4-1.7c0.6,0.4,1.9,0.6,2.8,0.6c1.4,0,2.2-0.6,2.2-1.8s-0.8-1.6-2.2-1.6h-1.3v-1.7h1.1
		c1.3,0,2-0.6,2-1.6c0-1.1-0.7-1.5-1.9-1.5c-0.8,0-1.8,0.3-2.5,0.5l-0.3-1.7c0.7-0.4,2.2-0.7,3.4-0.7c2.2,0,3.6,1,3.6,2.9
		c0,1.4-0.8,2.3-2,2.7c1.5,0.3,2.4,1.1,2.4,2.8c0,2.2-1.6,3.5-4.3,3.5C687.8,61.9,686.4,61.5,685.7,61.1z"/>
	<path fill="#D6D6D6" d="M696.6,52.5l-1.9,0.4v-1.4l3.1-1.4h1.2v11.7h-2.4L696.6,52.5L696.6,52.5z"/>
</g>
<g>
	<path fill="#D6D6D6" d="M712.3,60.3l2-2.2c1.6-1.7,3-3.2,3-4.6s-0.8-1.8-2.2-1.8c-0.7,0-1.7,0.4-2.3,0.7l-0.3-1.7
		c0.8-0.5,2-0.8,3.4-0.8c2.7,0,4,1.2,4,3.3s-2,4.2-3.2,5.4l-1.2,1.2h4.4v1.8h-7.5v-1.3H712.3z"/>
	<path fill="#D6D6D6" d="M721,61.1l0.4-1.7c0.6,0.4,1.9,0.6,2.8,0.6c1.4,0,2.2-0.6,2.2-1.8s-0.8-1.6-2.2-1.6h-1.3v-1.7h1.1
		c1.3,0,2-0.6,2-1.6c0-1.1-0.7-1.5-1.9-1.5c-0.8,0-1.8,0.3-2.5,0.5l-0.3-1.7c0.7-0.4,2.2-0.7,3.4-0.7c2.2,0,3.6,1,3.6,2.9
		c0,1.4-0.8,2.3-2,2.7c1.5,0.3,2.4,1.1,2.4,2.8c0,2.2-1.6,3.5-4.3,3.5C723.1,61.9,721.6,61.5,721,61.1z"/>
	<path fill="#D6D6D6" d="M730.2,60.3l2-2.2c1.6-1.7,3-3.2,3-4.6s-0.8-1.8-2.2-1.8c-0.7,0-1.7,0.4-2.3,0.7l-0.3-1.7
		c0.8-0.5,2-0.8,3.4-0.8c2.7,0,4,1.2,4,3.3s-2,4.2-3.2,5.4l-1.2,1.2h4.4v1.8h-7.5v-1.3H730.2z"/>
</g>
<g>
	<path fill="#D6D6D6" d="M748.2,60.3l2-2.2c1.6-1.7,3-3.2,3-4.6s-0.8-1.8-2.2-1.8c-0.7,0-1.7,0.4-2.3,0.7l-0.3-1.7
		c0.8-0.5,2-0.8,3.4-0.8c2.7,0,4,1.2,4,3.3s-2,4.2-3.2,5.4l-1.2,1.2h4.4v1.8h-7.5v-1.3H748.2z"/>
	<path fill="#D6D6D6" d="M756.9,61.1l0.4-1.7c0.6,0.4,1.9,0.6,2.8,0.6c1.4,0,2.2-0.6,2.2-1.8s-0.8-1.6-2.2-1.6h-1.3v-1.7h1.1
		c1.3,0,2-0.6,2-1.6c0-1.1-0.7-1.5-1.9-1.5c-0.8,0-1.8,0.3-2.5,0.5l-0.3-1.7c0.7-0.4,2.2-0.7,3.4-0.7c2.2,0,3.6,1,3.6,2.9
		c0,1.4-0.8,2.3-2,2.7c1.5,0.3,2.4,1.1,2.4,2.8c0,2.2-1.6,3.5-4.3,3.5C759.1,61.9,757.6,61.5,756.9,61.1z"/>
	<path fill="#D6D6D6" d="M766,61.1l0.4-1.7c0.6,0.4,1.9,0.6,2.8,0.6c1.4,0,2.2-0.6,2.2-1.8s-0.8-1.6-2.2-1.6h-1.3v-1.7h1.1
		c1.3,0,2-0.6,2-1.6c0-1.1-0.7-1.5-1.9-1.5c-0.8,0-1.8,0.3-2.5,0.5l-0.3-1.7c0.7-0.4,2.2-0.7,3.4-0.7c2.2,0,3.6,1,3.6,2.9
		c0,1.4-0.8,2.3-2,2.7c1.5,0.3,2.4,1.1,2.4,2.8c0,2.2-1.6,3.5-4.3,3.5C768.2,61.9,766.7,61.5,766,61.1z"/>
</g>
<g>
	<path fill="#D6D6D6" d="M783.8,60.3l2-2.2c1.6-1.7,3-3.2,3-4.6s-0.8-1.8-2.2-1.8c-0.7,0-1.7,0.4-2.3,0.7l-0.3-1.7
		c0.8-0.5,2-0.8,3.4-0.8c2.7,0,4,1.2,4,3.3s-2,4.2-3.2,5.4l-1.2,1.2h4.4v1.8h-7.5v-1.3H783.8z"/>
	<path fill="#D6D6D6" d="M792.5,61.1l0.4-1.7c0.6,0.4,1.9,0.6,2.8,0.6c1.4,0,2.2-0.6,2.2-1.8s-0.8-1.6-2.2-1.6h-1.3v-1.7h1.1
		c1.3,0,2-0.6,2-1.6c0-1.1-0.7-1.5-1.9-1.5c-0.8,0-1.8,0.3-2.5,0.5l-0.3-1.7c0.7-0.4,2.2-0.7,3.4-0.7c2.2,0,3.6,1,3.6,2.9
		c0,1.4-0.8,2.3-2,2.7c1.5,0.3,2.4,1.1,2.4,2.8c0,2.2-1.6,3.5-4.3,3.5C794.7,61.9,793.2,61.5,792.5,61.1z"/>
	<path fill="#D6D6D6" d="M806.7,59.7h-5.2v-1.3l5.9-8.3h1.6V58h1.8v1.7H809V62h-2.3V59.7z M806.7,57.9V54l-2.8,3.9H806.7z"/>
</g>
<g>
	<path fill="#D6D6D6" d="M820.2,60.3l2-2.2c1.6-1.7,3-3.2,3-4.6s-0.8-1.8-2.2-1.8c-0.7,0-1.7,0.4-2.3,0.7l-0.3-1.7
		c0.8-0.5,2-0.8,3.4-0.8c2.7,0,4,1.2,4,3.3s-2,4.2-3.2,5.4l-1.2,1.2h4.4v1.8h-7.5v-1.3H820.2z"/>
	<path fill="#D6D6D6" d="M828.9,61.1l0.4-1.7c0.6,0.4,1.9,0.6,2.8,0.6c1.4,0,2.2-0.6,2.2-1.8s-0.8-1.6-2.2-1.6h-1.3v-1.7h1.1
		c1.3,0,2-0.6,2-1.6c0-1.1-0.7-1.5-1.9-1.5c-0.8,0-1.8,0.3-2.5,0.5l-0.3-1.7c0.7-0.4,2.2-0.7,3.4-0.7c2.2,0,3.6,1,3.6,2.9
		c0,1.4-0.8,2.3-2,2.7c1.5,0.3,2.4,1.1,2.4,2.8c0,2.2-1.6,3.5-4.3,3.5C831,61.9,829.6,61.5,828.9,61.1z"/>
	<path fill="#D6D6D6" d="M838.1,61.1l0.4-1.8c0.7,0.3,1.4,0.6,2.3,0.6c1.5,0,2.5-0.7,2.5-2c0-1.4-0.8-1.9-2.4-1.9
		c-0.7,0-1.8,0.4-2.3,0.6L839,50h6.2v1.8h-4.4l-0.2,2.6c0.3-0.1,0.9-0.2,1.4-0.2c2.4,0,3.8,1.2,3.8,3.7c0,2.2-1.6,3.9-4.3,3.9
		C840.1,61.9,838.8,61.6,838.1,61.1z"/>
</g>
<g>
	<path fill="#D6D6D6" d="M856.1,60.3l2-2.2c1.6-1.7,3-3.2,3-4.6s-0.8-1.8-2.2-1.8c-0.7,0-1.7,0.4-2.3,0.7l-0.3-1.7
		c0.8-0.5,2-0.8,3.4-0.8c2.7,0,4,1.2,4,3.3s-2,4.2-3.2,5.4l-1.2,1.2h4.4v1.8h-7.5v-1.3H856.1z"/>
	<path fill="#D6D6D6" d="M864.8,61.1l0.4-1.7c0.6,0.4,1.9,0.6,2.8,0.6c1.4,0,2.2-0.6,2.2-1.8s-0.8-1.6-2.2-1.6h-1.3v-1.7h1.1
		c1.3,0,2-0.6,2-1.6c0-1.1-0.7-1.5-1.9-1.5c-0.8,0-1.8,0.3-2.5,0.5l-0.3-1.7c0.7-0.4,2.2-0.7,3.4-0.7c2.2,0,3.6,1,3.6,2.9
		c0,1.4-0.8,2.3-2,2.7c1.5,0.3,2.4,1.1,2.4,2.8c0,2.2-1.6,3.5-4.3,3.5C866.9,61.9,865.4,61.5,864.8,61.1z"/>
	<path fill="#D6D6D6" d="M874.2,56.8V56c0-4.5,2.4-6,5.2-6c1.2,0,2.2,0.4,2.7,0.6l-0.4,1.8c-0.5-0.2-1.4-0.5-2.2-0.5
		c-1.6,0-2.8,0.8-2.9,3.5c0.6-0.5,1.5-0.9,2.7-0.9c2,0,3.5,1.3,3.5,3.5c0,2.3-1.4,4-4.1,4C875.7,61.9,874.2,59.9,874.2,56.8z
		 M880.4,58.1c0-1.5-0.8-2-1.9-2c-0.7,0-1.5,0.5-1.9,1v0.1c0,1.9,0.6,3,2,3C879.7,60.2,880.4,59.4,880.4,58.1z"/>
</g>
<g>
	<path fill="#D6D6D6" d="M892.3,60.3l2-2.2c1.6-1.7,3-3.2,3-4.6s-0.8-1.8-2.2-1.8c-0.7,0-1.7,0.4-2.3,0.7l-0.3-1.7
		c0.8-0.5,2-0.8,3.4-0.8c2.7,0,4,1.2,4,3.3s-2,4.2-3.2,5.4l-1.2,1.2h4.4v1.8h-7.5v-1.3H892.3z"/>
	<path fill="#D6D6D6" d="M901,61.1l0.4-1.7c0.6,0.4,1.9,0.6,2.8,0.6c1.4,0,2.2-0.6,2.2-1.8s-0.8-1.6-2.2-1.6h-1.3v-1.7h1.1
		c1.3,0,2-0.6,2-1.6c0-1.1-0.7-1.5-1.9-1.5c-0.8,0-1.8,0.3-2.5,0.5l-0.3-1.7c0.7-0.4,2.2-0.7,3.4-0.7c2.2,0,3.6,1,3.6,2.9
		c0,1.4-0.8,2.3-2,2.7c1.5,0.3,2.4,1.1,2.4,2.8c0,2.2-1.6,3.5-4.3,3.5C903.2,61.9,901.7,61.5,901,61.1z"/>
	<path fill="#D6D6D6" d="M915.1,52h-5v-1.8h7.7v1.4l-4.1,10.2H911L915.1,52z"/>
</g>
<line fill="none" stroke="#D8D8D8" stroke-miterlimit="10" x1="937.6" y1="70" x2="937.6" y2="35.2"/>
<line fill="none" stroke="#D8D8D8" stroke-miterlimit="10" x1="937.6" y1="61.6" x2="924.2" y2="61.6"/>
<line fill="none" stroke="#D8D8D8" stroke-miterlimit="10" x1="924.2" y1="39" x2="937.2" y2="39"/>
<line fill="none" stroke="#D8D8D8" stroke-miterlimit="10" x1="924.2" y1="43.7" x2="937.6" y2="43.7"/>
<line fill="none" stroke="#D8D8D8" stroke-miterlimit="10" x1="924.2" y1="52.6" x2="937.7" y2="52.6"/>
<line fill="none" stroke="#D8D8D8" stroke-miterlimit="10" x1="924.2" y1="48.1" x2="937.2" y2="48.1"/>
<line fill="none" stroke="#D8D8D8" stroke-miterlimit="10" x1="924.2" y1="57.1" x2="937.2" y2="57.1"/>
<line fill="none" stroke="#D8D8D8" stroke-miterlimit="10" x1="950.2" y1="59.4" x2="937.2" y2="59.4"/>
<line fill="none" stroke="#D8D8D8" stroke-miterlimit="10" x1="950.2" y1="55" x2="937.2" y2="55"/>
<line fill="none" stroke="#D8D8D8" stroke-miterlimit="10" x1="950.2" y1="50.6" x2="937.2" y2="50.6"/>
<line fill="none" stroke="#D8D8D8" stroke-miterlimit="10" x1="950.2" y1="45.9" x2="937.2" y2="45.9"/>
<line fill="none" stroke="#D8D8D8" stroke-miterlimit="10" x1="950.2" y1="41.5" x2="937.2" y2="41.5"/>
<line fill="none" stroke="#D8D8D8" stroke-miterlimit="10" x1="950.2" y1="36.7" x2="937.2" y2="36.7"/>
<line fill="none" stroke="#D8D8D8" stroke-miterlimit="10" x1="937.2" y1="66.2" x2="924.2" y2="66.2"/>
<line fill="none" stroke="#D8D8D8" stroke-miterlimit="10" x1="487.6" y1="110.4" x2="487.6" y2="145.7"/>
<line fill="none" stroke="#D8D8D8" stroke-miterlimit="10" x1="467.5" y1="115" x2="467.5" y2="145.7"/>
<line fill="none" stroke="#D8D8D8" stroke-miterlimit="10" x1="447" y1="115" x2="468" y2="115"/>
<line fill="none" stroke="#D8D8D8" stroke-miterlimit="10" x1="447" y1="130.4" x2="467.5" y2="130.4"/>
<line fill="none" stroke="#D8D8D8" stroke-miterlimit="10" x1="447" y1="122.9" x2="467" y2="122.9"/>
<line fill="none" stroke="#D8D8D8" stroke-miterlimit="10" x1="447" y1="138.3" x2="467" y2="138.3"/>
<line fill="none" stroke="#D8D8D8" stroke-miterlimit="10" x1="447" y1="119.1" x2="467.5" y2="119.1"/>
<line fill="none" stroke="#D8D8D8" stroke-miterlimit="10" x1="447" y1="126.8" x2="467.5" y2="126.8"/>
<line fill="none" stroke="#D8D8D8" stroke-miterlimit="10" x1="447" y1="134.5" x2="467.5" y2="134.5"/>
<line fill="none" stroke="#D8D8D8" stroke-miterlimit="10" x1="446.7" y1="142.6" x2="467.3" y2="142.6"/>
<line fill="none" stroke="#D8D8D8" stroke-miterlimit="10" x1="467.5" y1="140.7" x2="487.6" y2="140.7"/>
<line fill="none" stroke="#D8D8D8" stroke-miterlimit="10" x1="467.5" y1="136.6" x2="487.6" y2="136.6"/>
<line fill="none" stroke="#D8D8D8" stroke-miterlimit="10" x1="467.5" y1="132.7" x2="487.6" y2="132.7"/>
<line fill="none" stroke="#D8D8D8" stroke-miterlimit="10" x1="467.5" y1="128.6" x2="487.6" y2="128.6"/>
<line fill="none" stroke="#D8D8D8" stroke-miterlimit="10" x1="467.5" y1="124.9" x2="487.6" y2="124.9"/>
<line fill="none" stroke="#D8D8D8" stroke-miterlimit="10" x1="467.5" y1="121.1" x2="487.6" y2="121.1"/>
<line fill="none" stroke="#D8D8D8" stroke-miterlimit="10" x1="467.5" y1="117.1" x2="487.6" y2="117.1"/>
</svg>
